<svg width="165" height="55" viewBox="0 0 165 55" fill="none" xmlns="http://www.w3.org/2000/svg">
<g clip-path="url(#clip0_290_2)">
<path fill-rule="evenodd" clip-rule="evenodd" d="M78.163 37.5523L78.153 15.3826L65.6927 0.412368C71.2359 0.14233 76.9875 0 82.8803 0C128.235 0 165 8.40163 165 18.7617C165 29.1189 128.235 37.5184 82.8803 37.5184C81.296 37.5184 79.7268 37.5713 78.163 37.5523Z" fill="#E4007D"/>
<path fill-rule="evenodd" clip-rule="evenodd" d="M78.163 37.5523C69.1246 37.3932 61.1671 37.0312 53.2185 36.3499L53.2132 15.3815L49.5024 15.3826L65.6874 0.412354L81.9025 15.3826H78.1527L78.163 37.5523Z" fill="#FFDC00"/>
<path fill-rule="evenodd" clip-rule="evenodd" d="M53.2135 36.3474V15.3815H49.5041L65.6938 0.412354C60.5075 0.673455 56.4574 0.997863 53.206 1.23247C22.1669 3.91128 0.0855103 10.7635 0.0855103 18.7917C0.0855103 26.8178 22.1695 33.67 53.2135 36.3474Z" fill="#63B22B"/>
<path fill-rule="evenodd" clip-rule="evenodd" d="M15.8251 13.0839C16.0243 12.6408 16.2148 12.2988 16.3989 12.0617C16.582 11.8231 16.8026 11.6365 17.0636 11.5002L17.7246 11.2706V11.1558C17.3299 11.1862 16.9627 11.2366 16.6285 11.306C16.2881 11.3729 15.9538 11.5002 15.6156 11.6844C15.2802 11.8675 14.9334 12.1122 14.5712 12.4151C14.2144 12.7216 13.8222 13.1268 13.396 13.6325C13.165 13.4333 13.0049 13.2012 12.9066 12.9322C12.8218 12.6661 12.7879 12.3897 12.8218 12.1071C12.8522 11.8231 12.9481 11.5571 13.1182 11.306C13.2848 11.051 13.5069 10.8328 13.7858 10.6487C14.1815 10.39 14.6306 10.2259 15.1351 10.1565C15.641 10.0911 16.1404 10.0911 16.6285 10.1565C17.1154 10.2259 17.5795 10.3511 18.0146 10.5352C18.4512 10.7195 18.7954 10.9351 19.0579 11.1773L19.4047 11.5206L19.7465 19.8013L19.3793 22.1228L19.493 22.2362C20.1023 20.6729 20.6342 19.3152 21.0747 18.1522C21.5213 16.9876 21.8906 15.997 22.1859 15.1693C22.4898 14.3443 22.7204 13.654 22.8985 13.1079C23.0737 12.5552 23.2063 12.1071 23.2893 11.7627C23.374 11.4169 23.418 11.1522 23.418 10.9577C23.418 10.7724 23.3929 10.6122 23.3461 10.4898C23.8191 10.3217 24.2732 10.2688 24.6997 10.3307C25.1295 10.39 25.4287 10.5968 25.5964 10.9502C25.6847 11.1343 25.7312 11.3275 25.7312 11.5345C25.7312 11.7387 25.7086 11.9559 25.6644 12.1765C25.6204 12.3986 25.5535 12.6093 25.4702 12.8188C25.3869 13.0245 25.2975 13.2212 25.2067 13.4029L19.6807 24.8971H17.7018L17.4976 13.4937L16.582 16.3163L12.5683 24.8971C12.1812 24.8681 11.76 24.8896 11.2945 24.9665C10.8264 25.0434 10.3953 25.1331 9.99414 25.2405L15.8251 13.0839Z" fill="white"/>
<path fill-rule="evenodd" clip-rule="evenodd" d="M26.5449 19.4251C26.1184 20.1973 25.8423 20.8965 25.7072 21.5195C26.5449 21.4376 27.3508 21.0996 28.1341 20.5117C28.9171 19.9173 29.5997 19.1072 30.1938 18.0714C30.5846 17.3976 30.7727 16.849 30.7573 16.4323C30.7398 16.011 30.6175 15.7803 30.3905 15.7284C30.0283 15.6172 29.4913 15.8547 28.7863 16.4452C28.0798 17.0342 27.3357 18.0299 26.5449 19.4251ZM27.2839 24.1075C27.7101 24.1075 28.202 24.0342 28.7594 23.8865C29.3208 23.7366 29.881 23.5106 30.4498 23.1951C31.0187 22.8836 31.5611 22.4823 32.0895 21.9891C32.6129 21.4956 33.073 20.9051 33.4692 20.2138L34.0584 20.5596C33.6962 21.1816 33.2522 21.7571 32.7302 22.2867C32.2003 22.8103 31.6264 23.2634 31.0058 23.6383C30.3805 24.0178 29.713 24.3181 29.0105 24.5363C28.3043 24.7624 27.5893 24.8732 26.8627 24.8732C25.9936 24.8732 25.2785 24.7105 24.7122 24.3915C24.1434 24.071 23.7383 23.6433 23.4873 23.1107C23.2413 22.5796 23.162 21.9538 23.2413 21.2484C23.3271 20.5406 23.5806 19.796 24.0072 19.0078C24.4333 18.2331 24.9292 17.5782 25.5006 17.0342C26.0643 16.4942 26.6557 16.0628 27.2714 15.7424C27.8867 15.4205 28.501 15.2049 29.1191 15.0875C29.7369 14.9752 30.3136 14.9513 30.856 15.0157C31.3161 15.0646 31.6908 15.1998 31.9797 15.4205C32.2647 15.6412 32.4767 15.9101 32.6029 16.2217C32.7352 16.5321 32.7845 16.884 32.7502 17.2714C32.7227 17.6537 32.6029 18.046 32.4073 18.4412C32.1299 19.0163 31.7502 19.5374 31.2721 20.0031C30.7992 20.4713 30.2618 20.8647 29.6615 21.1766C29.0622 21.4856 28.4116 21.7202 27.7151 21.8768C27.0179 22.0331 26.3179 22.0925 25.6089 22.061C25.542 22.702 25.6557 23.2016 25.9557 23.5649C26.2521 23.9258 26.6947 24.1075 27.2839 24.1075Z" fill="white"/>
<path fill-rule="evenodd" clip-rule="evenodd" d="M39.9209 24.0332C40.1554 24.1137 40.4479 24.0306 40.8201 23.7746C41.1897 23.5207 41.5744 23.1348 41.9781 22.6287C42.3814 22.1205 42.79 21.5021 43.2091 20.7768C43.6277 20.0601 43.9999 19.2765 44.3303 18.4399C44.5419 17.9327 44.7275 17.3787 44.8877 16.7757C45.0404 16.1763 45.1526 15.6198 45.2169 15.1127C45.7279 14.9653 46.1365 14.9414 46.449 15.0397C46.7593 15.1366 46.9814 15.3387 47.1115 15.6541C47.2452 15.9671 47.2842 16.3655 47.2249 16.8491C47.163 17.3347 47.0332 17.8809 46.8187 18.4868C46.5398 19.2435 46.1655 20.0032 45.6825 20.7678C45.207 21.5311 44.6656 22.2213 44.0464 22.8383C43.4282 23.4538 42.7636 23.9574 42.0535 24.3422C41.3371 24.7296 40.6105 24.9188 39.874 24.9188C39.135 24.9188 38.5612 24.7296 38.16 24.3422C37.7578 23.9574 37.5483 23.4238 37.5294 22.751C37.0109 23.4906 36.4864 24.0307 35.9791 24.3651C35.4696 24.7031 34.9373 24.8723 34.3773 24.8723C33.9662 24.8723 33.6169 24.7789 33.3191 24.6022C33.0227 24.4191 32.7996 24.1655 32.6534 23.8476C32.5007 23.5311 32.4538 23.1423 32.4932 22.6895C32.5336 22.2378 32.6834 21.7406 32.9497 21.1981L35.7849 15.4825C36.2086 15.4964 36.6541 15.465 37.1221 15.3827C37.5923 15.3033 38.0438 15.1785 38.4679 15.0143L35.3663 21.27C34.9866 21.9978 34.8214 22.5454 34.8704 22.9241C34.9197 23.3014 35.1103 23.4842 35.4342 23.4667C35.8482 23.4667 36.2744 23.1866 36.721 22.6287C37.1636 22.0697 37.6441 21.3304 38.1715 20.4105L40.6105 15.4825C40.9927 15.5164 41.4253 15.49 41.9137 15.4081C42.4068 15.3287 42.8773 15.1935 43.3199 15.0143L40.1944 21.3219C39.7138 22.2933 39.4793 22.9695 39.4893 23.3555C39.4993 23.7417 39.642 23.9688 39.9209 24.0332Z" fill="white"/>
<path fill-rule="evenodd" clip-rule="evenodd" d="M91.2715 23.0209C90.6283 23.6607 89.9271 24.1364 89.1703 24.4479C88.4234 24.7623 87.7047 24.9175 87.0322 24.9175C86.0887 24.9175 85.3057 24.7294 84.689 24.346C84.0708 23.9637 83.6232 23.4375 83.3418 22.7673C83.0554 22.0964 82.9446 21.3013 82.9986 20.3854C83.0529 19.473 83.2825 18.4841 83.6961 17.4126C84.0733 16.4058 84.6007 15.438 85.2578 14.5056C85.9235 13.5746 86.674 12.7746 87.5142 12.1061C88.354 11.4348 89.2586 10.9251 90.2396 10.5818C91.2096 10.2413 92.2175 10.144 93.2593 10.2967C93.7145 10.3861 94.1017 10.5617 94.4249 10.8239C94.7452 11.0828 94.9748 11.4058 95.1196 11.7967C95.2648 12.1816 95.3191 12.6297 95.2723 13.1343C95.2208 13.64 95.0706 14.1851 94.8121 14.7809C94.5207 15.423 94.1764 15.934 93.7713 16.3139C93.3677 16.6947 92.959 16.9548 92.5479 17.0921C92.1342 17.2298 91.7495 17.2437 91.3902 17.1314C91.033 17.0127 90.757 16.7881 90.5575 16.4501C91.0938 16.1308 91.5553 15.7498 91.9386 15.3071C92.3308 14.864 92.6541 14.3997 92.9176 13.9115C93.0967 13.5746 93.2354 13.2527 93.3237 12.9397C93.417 12.6282 93.466 12.3382 93.4739 12.0692C93.4792 11.8032 93.4445 11.5746 93.3462 11.3829C93.2593 11.1937 93.1117 11.051 92.9176 10.9577C92.5768 10.8239 92.1267 10.8643 91.5553 11.0879C90.9815 11.306 90.3748 11.6923 89.7316 12.2434C89.0909 12.791 88.4602 13.4988 87.8256 14.3707C87.1899 15.2377 86.64 16.252 86.1874 17.4126C85.7873 18.4497 85.5388 19.3571 85.4355 20.1368C85.3247 20.914 85.3322 21.5727 85.4584 22.1039C85.5807 22.6375 85.8052 23.0488 86.1355 23.3378C86.4609 23.6293 86.8495 23.7984 87.3097 23.8399C88.0387 23.9182 88.7541 23.7856 89.4463 23.4426C90.1428 23.0967 90.7495 22.6765 91.2715 22.1718V23.0209Z" fill="white"/>
<path fill-rule="evenodd" clip-rule="evenodd" d="M92.4396 22.8647C92.5203 22.341 92.7295 21.7441 93.0574 21.0767C93.3881 20.4079 93.7424 19.6901 94.1196 18.9154L98.3449 10.3193C98.7361 10.3507 99.2037 10.3219 99.7386 10.2309C100.271 10.1401 100.756 10.0178 101.183 9.84863L95.5801 21.2609C95.2308 21.9712 95.0263 22.5252 94.9619 22.929C94.8951 23.3339 95.0038 23.5599 95.2798 23.6089C95.608 23.6887 96.091 23.4601 96.7167 22.9176C97.3395 22.375 98.0121 21.4855 98.7361 20.2491L99.3324 20.5975C98.9352 21.1879 98.5441 21.7466 98.1443 22.2727C97.7482 22.8003 97.3395 23.262 96.9234 23.6583C96.5072 24.0495 96.0681 24.365 95.6001 24.5957C95.14 24.8253 94.6391 24.939 94.0942 24.939C93.8507 24.939 93.6126 24.8972 93.3806 24.8077C93.1511 24.7169 92.9541 24.5842 92.7989 24.4129C92.6437 24.2387 92.5329 24.0256 92.4646 23.7692C92.4056 23.5145 92.3952 23.213 92.4396 22.8647Z" fill="white"/>
<path fill-rule="evenodd" clip-rule="evenodd" d="M101.729 19.4596C101.297 20.2317 101.02 20.9316 100.886 21.5589C101.729 21.4756 102.537 21.1373 103.318 20.5468C104.099 19.9513 104.786 19.1362 105.38 18.0994C105.774 17.4256 105.963 16.8766 105.949 16.4563C105.931 16.0365 105.805 15.8029 105.577 15.7525C105.215 15.6377 104.678 15.8762 103.973 16.4703C103.264 17.0647 102.515 18.06 101.729 19.4596ZM102.465 24.1505C102.899 24.1505 103.386 24.0761 103.951 23.9295C104.505 23.7807 105.066 23.5511 105.639 23.2396C106.208 22.9241 106.757 22.5214 107.278 22.0271C107.803 21.5311 108.265 20.9395 108.664 20.2478L109.257 20.5962C108.896 21.2181 108.449 21.7971 107.924 22.3222C107.392 22.8508 106.818 23.3014 106.195 23.6799C105.572 24.0633 104.905 24.3597 104.2 24.5844C103.486 24.8079 102.771 24.9177 102.049 24.9177C101.175 24.9177 100.453 24.7574 99.8887 24.4356C99.3174 24.1137 98.9137 23.6848 98.6613 23.1523C98.4153 22.6162 98.3349 21.9917 98.4154 21.2875C98.4987 20.5786 98.7561 19.8279 99.1836 19.0393C99.6074 18.2657 100.108 17.6058 100.675 17.0647C101.246 16.5182 101.837 16.0855 102.453 15.765C103.071 15.4435 103.688 15.2264 104.311 15.1127C104.929 14.9953 105.503 14.9728 106.05 15.0397C106.511 15.0876 106.885 15.2214 107.168 15.4435C107.457 15.6681 107.666 15.9327 107.801 16.2482C107.932 16.5612 107.979 16.9095 107.947 17.2979C107.914 17.6852 107.801 18.0726 107.604 18.4714C107.325 19.0479 106.939 19.5704 106.466 20.0397C105.988 20.5068 105.451 20.8966 104.85 21.2095C104.249 21.5261 103.598 21.7582 102.899 21.9148C102.199 22.0736 101.494 22.133 100.785 22.1015C100.726 22.7435 100.84 23.2471 101.13 23.609C101.426 23.9724 101.872 24.1505 102.465 24.1505Z" fill="white"/>
<path fill-rule="evenodd" clip-rule="evenodd" d="M111.129 23.7531C111.629 23.7417 112.213 23.3594 112.886 22.6072C113.561 21.8604 114.233 20.8168 114.913 19.4821L116.564 16.1488C116.239 16.001 115.867 15.9646 115.47 16.0365C115.063 16.1109 114.647 16.2836 114.218 16.5561C113.792 16.8262 113.363 17.1935 112.94 17.6437C112.507 18.0955 112.102 18.628 111.726 19.2374C111.297 19.9288 110.982 20.5482 110.78 21.1023C110.568 21.6523 110.452 22.1266 110.429 22.5214C110.405 22.9177 110.452 23.2217 110.579 23.4377C110.703 23.6495 110.886 23.7531 111.129 23.7531ZM109.503 18.6455C110.065 17.819 110.654 17.1416 111.264 16.6041C111.886 16.073 112.507 15.6731 113.13 15.4081C113.755 15.1445 114.371 15.0243 114.973 15.0497C115.575 15.0737 116.138 15.2239 116.663 15.5089C117.076 15.736 117.539 15.8433 118.059 15.8258C118.576 15.8104 119.084 15.6981 119.576 15.4825L116.642 21.261C115.864 22.8257 115.768 23.609 116.345 23.609C116.719 23.609 117.216 23.3555 117.825 22.8433C118.431 22.3322 119.089 21.4667 119.798 20.2493L120.392 20.5976C120 21.1716 119.604 21.7228 119.211 22.2503C118.813 22.7778 118.392 23.2396 117.958 23.6344C117.524 24.0268 117.064 24.3447 116.573 24.5844C116.091 24.8243 115.575 24.9377 115.034 24.9377C114.608 24.9377 114.238 24.7979 113.936 24.5114C113.626 24.2224 113.479 23.8225 113.479 23.3125L113.848 22.4699H113.778L113.504 22.8698C113.073 23.4906 112.595 23.9889 112.07 24.3597C111.546 24.731 110.961 24.9177 110.318 24.9177C109.744 24.9177 109.269 24.751 108.899 24.413C108.527 24.0736 108.301 23.6155 108.206 23.04C108.116 22.4649 108.175 21.7972 108.368 21.0389C108.565 20.2822 108.945 19.4821 109.503 18.6455Z" fill="white"/>
<path fill-rule="evenodd" clip-rule="evenodd" d="M122.075 15.4091C122.434 15.4749 122.873 15.4649 123.39 15.3716C123.91 15.2808 124.413 15.1695 124.884 15.0408L124.245 16.3469L123.205 17.6072L123.282 17.7307C124.139 16.6938 125.008 15.9657 125.903 15.5429C126.789 15.123 127.554 14.9488 128.198 15.0118C128.97 15.0962 129.443 15.4914 129.625 16.1992C129.756 16.7088 129.702 17.2514 129.443 17.8304C129.187 18.4045 128.842 19.0972 128.389 19.9059C128.084 20.4449 127.797 20.9456 127.554 21.3987C127.304 21.8504 127.118 22.2428 126.996 22.5733C126.874 22.8987 126.822 23.1587 126.836 23.3494C126.851 23.5371 126.967 23.6355 127.184 23.6355C127.415 23.6355 127.678 23.5321 127.975 23.3265C128.273 23.1208 128.576 22.8533 128.898 22.5353C129.219 22.2138 129.532 21.8504 129.834 21.4477C130.141 21.0439 130.418 20.6455 130.663 20.2493L131.256 20.5976C130.813 21.2195 130.384 21.7975 129.976 22.3236C129.563 22.8522 129.143 23.3075 128.717 23.6949C128.283 24.0822 127.854 24.3826 127.415 24.5958C126.977 24.8103 126.518 24.9187 126.021 24.9187C125.548 24.9187 125.132 24.751 124.784 24.4141C124.44 24.0747 124.282 23.6169 124.321 23.0414C124.336 22.6112 124.469 22.148 124.729 21.6459C124.987 21.1426 125.297 20.5797 125.675 19.9527C126.12 19.212 126.466 18.5951 126.711 18.1005C126.965 17.6072 127.11 17.2174 127.169 16.927C127.228 16.6405 127.211 16.4413 127.11 16.3329C127.011 16.2256 126.836 16.1838 126.59 16.1992C126.394 16.2157 126.135 16.3215 125.812 16.5196C125.494 16.7163 125.122 17.0218 124.716 17.4341C124.307 17.8469 123.851 18.378 123.356 19.0293C122.858 19.6777 122.363 20.4638 121.85 21.3873L120.146 24.9187H117.531L122.075 15.4091Z" fill="white"/>
<path fill-rule="evenodd" clip-rule="evenodd" d="M137.257 12.5186C137.03 12.9668 136.683 13.2643 136.234 13.421C135.776 13.5748 135.347 13.5583 134.933 13.3577C134.491 13.127 134.207 12.8065 134.081 12.3963C133.959 11.9836 134.024 11.5637 134.274 11.1345C134.5 10.7093 134.845 10.4281 135.291 10.2969C135.75 10.1642 136.176 10.1985 136.587 10.3952C136.998 10.6234 137.272 10.9414 137.394 11.3452C137.518 11.7504 137.471 12.1413 137.257 12.5186ZM129.601 22.8662C129.669 22.3422 129.873 21.7442 130.206 21.0783C130.544 20.4081 130.901 19.6917 131.281 18.917L132.985 15.5104C133.394 15.5418 133.867 15.5179 134.393 15.4321C134.918 15.3512 135.394 15.2214 135.828 15.0408L132.739 21.2625C131.992 22.8258 131.933 23.6104 132.542 23.6104C132.919 23.6104 133.394 23.3569 133.971 22.8447C134.548 22.3337 135.189 21.4681 135.9 20.2493L136.494 20.5976C136.13 21.1387 135.761 21.6698 135.394 22.186C135.023 22.7095 134.623 23.1752 134.192 23.584C133.765 23.9964 133.305 24.3258 132.816 24.5718C132.32 24.8204 131.765 24.9392 131.16 24.9392C130.715 24.9392 130.317 24.7739 129.976 24.437C129.625 24.0986 129.503 23.5776 129.601 22.8662Z" fill="white"/>
<path fill-rule="evenodd" clip-rule="evenodd" d="M138.195 15.4091C138.557 15.4749 138.999 15.4649 139.518 15.3716C140.033 15.2808 140.534 15.1695 141.008 15.0408L140.371 16.3469L139.33 17.6072L139.405 17.7307C140.257 16.6938 141.137 15.9657 142.023 15.5429C142.912 15.123 143.674 14.9488 144.318 15.0118C145.093 15.0962 145.571 15.4914 145.745 16.1992C145.881 16.7088 145.822 17.2514 145.564 17.8304C145.31 18.4045 144.957 19.0972 144.514 19.9059C144.204 20.4449 143.923 20.9456 143.674 21.3987C143.427 21.8504 143.243 22.2428 143.122 22.5733C142.999 22.8987 142.943 23.1587 142.962 23.3494C142.979 23.5371 143.093 23.6355 143.305 23.6355C143.536 23.6355 143.797 23.5321 144.098 23.3265C144.39 23.1208 144.703 22.8533 145.019 22.5353C145.344 22.2138 145.657 21.8504 145.96 21.4477C146.265 21.0439 146.544 20.6455 146.787 20.2493L147.381 20.5976C146.936 21.2195 146.505 21.7975 146.093 22.3236C145.683 22.8522 145.265 23.3075 144.837 23.6949C144.408 24.0822 143.982 24.3826 143.541 24.5958C143.101 24.8103 142.639 24.9187 142.142 24.9187C141.664 24.9187 141.257 24.751 140.907 24.4141C140.565 24.0747 140.408 23.6169 140.444 23.0414C140.462 22.6112 140.594 22.148 140.85 21.6459C141.105 21.1426 141.426 20.5797 141.799 19.9527C142.245 19.212 142.59 18.5951 142.839 18.1005C143.085 17.6072 143.235 17.2174 143.295 16.927C143.352 16.6405 143.331 16.4413 143.233 16.3329C143.132 16.2256 142.962 16.1838 142.716 16.1992C142.519 16.2157 142.255 16.3215 141.932 16.5196C141.612 16.7163 141.25 17.0218 140.839 17.4341C140.428 17.8469 139.974 18.378 139.482 19.0293C138.984 19.6777 138.484 20.4638 137.976 21.3873L136.269 24.9187H133.652L138.195 15.4091Z" fill="white"/>
<path fill-rule="evenodd" clip-rule="evenodd" d="M149.697 22.669C150.195 22.669 150.72 22.3915 151.268 21.8414C151.821 21.2899 152.395 20.4194 152.988 19.2373L154.466 16.271C153.742 15.8922 152.981 15.9026 152.18 16.2949C151.385 16.6923 150.606 17.5328 149.852 18.8171C149.467 19.4441 149.201 19.9941 149.046 20.4698C148.891 20.948 148.815 21.3482 148.825 21.6697C148.832 21.9877 148.916 22.2377 149.081 22.4079C149.249 22.5807 149.456 22.669 149.697 22.669ZM146.415 28.1776C146.091 27.9773 145.832 27.7602 145.647 27.5216C145.467 27.2831 145.347 27.0585 145.293 26.8428C145.233 26.6282 145.233 26.434 145.283 26.2638C145.332 26.0882 145.427 25.9598 145.578 25.88C145.724 25.8006 145.884 25.7741 146.058 25.8071C146.236 25.8371 146.383 25.9294 146.517 26.0756C146.647 26.2244 146.748 26.4276 146.812 26.6851C146.879 26.9361 146.885 27.2376 146.836 27.5835C147.231 27.8306 147.714 27.8231 148.278 27.5581C148.849 27.296 149.356 26.694 149.798 25.7552L150.985 23.4097L151.724 22.3751H151.625L151.281 22.6944C150.95 23.0235 150.576 23.2974 150.147 23.5206C149.722 23.7427 149.249 23.8386 148.738 23.8046C148.192 23.7881 147.736 23.6293 147.369 23.3253C146.999 23.0199 146.748 22.6111 146.624 22.1014C146.5 21.5929 146.515 21.0049 146.65 20.3325C146.79 19.6687 147.11 18.9623 147.603 18.2241C148.115 17.4645 148.665 16.849 149.258 16.3719C149.852 15.8922 150.448 15.5543 151.057 15.3576C151.669 15.1594 152.271 15.0875 152.86 15.134C153.454 15.1844 154.013 15.3386 154.54 15.6061C154.998 15.8533 155.479 15.9645 155.974 15.9377C156.466 15.9137 156.975 15.7939 157.503 15.5807L153.085 24.2009C152.786 24.7763 152.51 25.2885 152.254 25.7327C152.005 26.1765 151.744 26.5588 151.478 26.8807C151.214 27.2037 150.94 27.4748 150.668 27.7083C150.384 27.9394 150.072 28.1361 149.723 28.3038C149.497 28.3997 149.241 28.4769 148.96 28.5334C148.682 28.5917 148.389 28.6218 148.094 28.6218C147.802 28.6218 147.507 28.5839 147.219 28.5109C146.931 28.4376 146.66 28.3253 146.415 28.1776Z" fill="white"/>
<path fill-rule="evenodd" clip-rule="evenodd" d="M65.4618 18.9458H59.7885V24.5427H65.4618V18.9458Z" fill="white"/>
<path fill-rule="evenodd" clip-rule="evenodd" d="M72.0496 18.9458H66.3738V24.5427H72.0496V18.9458Z" fill="white"/>
<path fill-rule="evenodd" clip-rule="evenodd" d="M65.4618 25.4436H59.7885V31.042H65.4618V25.4436Z" fill="white"/>
<path fill-rule="evenodd" clip-rule="evenodd" d="M72.0496 25.4436H66.3738V31.042H72.0496V25.4436Z" fill="white"/>
<path fill-rule="evenodd" clip-rule="evenodd" d="M72.3789 6.67796L73.4723 0.000976562L74.5709 6.67796L81.2467 7.77703L74.5709 8.87464L73.4723 15.5502L72.3789 8.87464L65.7078 7.77703L72.3789 6.67796Z" fill="white"/>
<path fill-rule="evenodd" clip-rule="evenodd" d="M2.99265 51.1264H1.92V54.8158H0.0570679V45.7703H1.92V49.3962H2.77022L4.98096 45.7703H7.25307L4.46592 50.0555L7.54575 54.8158H5.32232L2.99265 51.1264ZM15.6132 45.7703V54.8158H13.7438V47.2841H11.3336L11.1852 50.4754C11.1218 51.5525 10.9861 52.3986 10.774 53.0177C10.5642 53.6368 10.2548 54.0907 9.84967 54.379C9.44292 54.6653 8.88976 54.8117 8.18591 54.8158H7.70062V53.3146L8.01217 53.2827C8.47853 53.2214 8.81338 52.9519 9.01451 52.4726C9.21399 51.9958 9.34318 51.1432 9.39631 49.9176L9.55086 45.7703H15.6132ZM22.6608 45.7703H24.5282V54.8158H22.6608V48.8086L19.0385 54.8158H17.1773V45.7703H19.0385V51.7901L22.6608 45.7703ZM33.5027 54.8158H31.6398V50.9355H28.0065V54.8158H26.1436V45.7703H28.0065V49.4343H31.6398V45.7703H33.5027V54.8158ZM40.5507 45.7703H42.418V54.8158H40.5507V48.8086L36.9284 54.8158H35.0672V45.7703H36.9284V51.7901L40.5507 45.7703ZM51.3926 54.8158H49.5297V50.9355H45.8964V54.8158H44.0335V45.7703H45.8964V49.4343H49.5297V45.7703H51.3926V54.8158ZM58.9495 47.2841H54.8943V54.8158H53.0314V45.7703H58.9495V47.2841ZM67.057 50.4987C67.057 51.3893 66.898 52.1696 66.5844 52.8418C66.2685 53.5138 65.8192 54.031 65.2342 54.3958C64.6471 54.7606 63.9751 54.9429 63.2184 54.9429C62.468 54.9429 61.8004 54.7626 61.2133 54.4023C60.6239 54.0417 60.1681 53.5264 59.8459 52.8566C59.5238 52.1888 59.3607 51.4188 59.3563 50.5474V50.1C59.3563 49.2094 59.5153 48.425 59.8377 47.7466C60.1575 47.0702 60.6112 46.5505 61.1962 46.1882C61.7833 45.8254 62.4532 45.6431 63.2058 45.6431C63.9604 45.6431 64.628 45.8254 65.215 46.1882C65.8 46.5505 66.2537 47.0702 66.5738 47.7466C66.8959 48.425 67.057 49.2073 67.057 50.0938V50.4987ZM65.1684 50.0873C65.1684 49.1374 64.9988 48.4165 64.6598 47.9224C64.3185 47.4285 63.8353 47.1823 63.2058 47.1823C62.5803 47.1823 62.0992 47.4264 61.7579 47.9139C61.4189 48.4017 61.2473 49.1161 61.2428 50.0575V50.4987C61.2428 51.4232 61.4124 52.1422 61.7537 52.6509C62.093 53.162 62.5803 53.4164 63.2184 53.4164C63.8435 53.4164 64.3226 53.1703 64.6598 52.6783C64.9946 52.1888 65.1643 51.4719 65.1684 50.5306V50.0873ZM68.4113 54.8158V45.7703H71.5782C72.6762 45.7703 73.5093 45.98 74.0751 46.4021C74.6433 46.822 74.9274 47.4391 74.9274 48.2512C74.9274 48.6941 74.813 49.0867 74.584 49.4237C74.3572 49.761 74.0412 50.0088 73.6344 50.1658C74.0984 50.2824 74.4631 50.5155 74.73 50.8676C74.9974 51.2196 75.1307 51.6502 75.1307 52.159C75.1307 53.0283 74.853 53.6855 74.2999 54.1329C73.7444 54.5803 72.9538 54.8072 71.9281 54.8158H68.4113ZM70.2746 50.8847V53.3146H71.8709C72.3096 53.3146 72.6529 53.2107 72.8987 53.003C73.1447 52.7952 73.2677 52.5066 73.2677 52.1398C73.2677 51.315 72.8394 50.8974 71.983 50.8847H70.2746ZM70.2746 49.5614H71.6547C72.5936 49.5447 73.0642 49.1713 73.0642 48.4377C73.0642 48.0284 72.9452 47.7339 72.7061 47.5536C72.4686 47.3733 72.0933 47.2841 71.5782 47.2841H70.2746V49.5614ZM81.4599 52.9584H78.1937L77.5727 54.8158H75.5929L78.9569 45.7703H80.6844L84.0692 54.8158H82.0874L81.4599 52.9584ZM78.6961 51.4445H80.9579L79.8215 48.0562L78.6961 51.4445ZM89.0952 54.8158V51.559H87.5795L85.9455 54.8158H83.9339L85.865 50.9608C84.9342 50.448 84.4682 49.6506 84.4682 48.5669C84.4682 47.6807 84.7584 46.9958 85.3372 46.5104C85.9178 46.0246 86.7255 45.7789 87.7663 45.7703H90.9626V54.8158H89.0952ZM86.3311 48.7072C86.3311 49.2118 86.4541 49.5786 86.7001 49.8052C86.9459 50.0321 87.317 50.1466 87.8084 50.1466H89.0952V47.2841H87.8084C86.8228 47.2841 86.3311 47.7593 86.3311 48.7072ZM98.6168 51.1264H97.5441V54.8158H95.6813V45.7703H97.5441V49.3962H98.3944L100.605 45.7703H102.877L100.09 50.0555L103.17 54.8158H100.946L98.6168 51.1264ZM110.949 50.4987C110.949 51.3893 110.79 52.1696 110.476 52.8418C110.16 53.5138 109.711 54.031 109.126 54.3958C108.539 54.7606 107.867 54.9429 107.11 54.9429C106.36 54.9429 105.692 54.7626 105.105 54.4023C104.516 54.0417 104.06 53.5264 103.738 52.8566C103.416 52.1888 103.253 51.4188 103.248 50.5474V50.1C103.248 49.2094 103.407 48.425 103.729 47.7466C104.049 47.0702 104.503 46.5505 105.088 46.1882C105.675 45.8254 106.345 45.6431 107.098 45.6431C107.852 45.6431 108.52 45.8254 109.107 46.1882C109.692 46.5505 110.146 47.0702 110.466 47.7466C110.788 48.425 110.949 49.2073 110.949 50.0938V50.4987ZM109.06 50.0873C109.06 49.1374 108.891 48.4165 108.552 47.9224C108.21 47.4285 107.727 47.1823 107.098 47.1823C106.472 47.1823 105.991 47.4264 105.65 47.9139C105.311 48.4017 105.139 49.1161 105.135 50.0575V50.4987C105.135 51.4232 105.304 52.1422 105.646 52.6509C105.985 53.162 106.472 53.4164 107.11 53.4164C107.735 53.4164 108.214 53.1703 108.552 52.6783C108.886 52.1888 109.056 51.4719 109.06 50.5306V50.0873ZM114.739 45.7703L117.062 52.3307L119.372 45.7703H121.818V54.8158H119.949V52.3434L120.136 48.075L117.695 54.8158H116.416L113.982 48.0815L114.168 52.3434V54.8158H112.306V45.7703H114.739ZM130.81 54.8158H128.943V47.2841H125.322V54.8158H123.459V45.7703H130.81V54.8158ZM137.548 52.9584H134.282L133.661 54.8158H131.681L135.045 45.7703H136.772L140.157 54.8158H138.175L137.548 52.9584ZM134.784 51.4445H137.046L135.91 48.0562L134.784 51.4445ZM148.361 54.8158H146.498V50.9355H142.864V54.8158H141.001V45.7703H142.864V49.4343H146.498V45.7703H148.361V54.8158ZM155.408 45.7703H157.276V54.8158H155.408V48.8086L151.786 54.8158H149.925V45.7703H151.786V51.7901L155.408 45.7703ZM163.073 54.8158V51.559H161.557L159.923 54.8158H157.912L159.843 50.9608C158.912 50.448 158.446 49.6506 158.446 48.5669C158.446 47.6807 158.736 46.9958 159.315 46.5104C159.896 46.0246 160.703 45.7789 161.744 45.7703H164.941V54.8158H163.073ZM160.309 48.7072C160.309 49.2118 160.432 49.5786 160.678 49.8052C160.924 50.0321 161.295 50.1466 161.786 50.1466H163.073V47.2841H161.786C160.801 47.2841 160.309 47.7593 160.309 48.7072Z" fill="#041726"/>
</g>
<defs>
<clipPath id="clip0_290_2">
<rect width="165" height="55" fill="white"/>
</clipPath>
</defs>
</svg>
